<svg xmlns="http://www.w3.org/2000/svg" viewBox="0 0 200 70" fill="none">
  <!-- Sun Disc -->
  <circle cx="100" cy="24" r="17" fill="#FFCC00"/>

  <!-- Left Charging Bull -->
  <g fill="#E10600">
    <!-- Tail & Body -->
    <path d="M48 18 C52 13 58 12 63 15 C60 17 58 20 61 24 C64 27 70 28 75 25 C82 21 86 16 93 22 C95 24 93 27 89 28 C84 29 80 32 78 36 C75 40 70 41 65 38 C60 36 57 37 54 39 C51 40 48 38 49 35 C50 32 54 30 55 26 C56 22 51 22 48 18 Z"/>
    <!-- Head & Horns -->
    <path d="M91 21 C93 18 97 16 99 19 C98 21 95 23 93 24 Z" fill="#FFCC00"/>
    <path d="M88 23 C91 21 95 23 96 26 C94 28 90 28 88 25 Z"/>
    <!-- Front Leg -->
    <path d="M78 34 L82 42 L80 43 L75 36 Z"/>
  </g>

  <!-- Right Charging Bull (Mirrored) -->
  <g fill="#E10600">
    <!-- Tail & Body -->
    <path d="M152 18 C148 13 142 12 137 15 C140 17 142 20 139 24 C136 27 130 28 125 25 C118 21 114 16 107 22 C105 24 107 27 111 28 C116 29 120 32 122 36 C125 40 130 41 135 38 C140 36 143 37 146 39 C149 40 152 38 151 35 C150 32 146 30 145 26 C144 22 149 22 152 18 Z"/>
    <!-- Head & Horns -->
    <path d="M109 21 C107 18 103 16 101 19 C102 21 105 23 107 24 Z" fill="#FFCC00"/>
    <path d="M112 23 C109 21 105 23 104 26 C106 28 110 28 112 25 Z"/>
    <!-- Front Leg -->
    <path d="M122 34 L118 42 L120 43 L125 36 Z"/>
  </g>

  <!-- Red Bull Typography -->
  <text x="100" y="62" fill="#E10600" font-family="'Chakra Petch', 'Arial Black', sans-serif" font-weight="900" font-size="20" text-anchor="middle" letter-spacing="0.5">Red Bull</text>
</svg>
